<?xml version="1.0" standalone="no"?>
<!DOCTYPE svg PUBLIC "-//W3C//DTD SVG 20010904//EN"
 "http://www.w3.org/TR/2001/REC-SVG-20010904/DTD/svg10.dtd">
<svg version="1.0" xmlns="http://www.w3.org/2000/svg"
 width="288.000000pt" height="288.000000pt" viewBox="0 0 288.000000 288.000000"
 preserveAspectRatio="xMidYMid meet">
<metadata>
Created by potrace 1.14, written by Peter Selinger 2001-2017
</metadata>
<g transform="translate(0.000000,288.000000) scale(0.100000,-0.100000)"
fill="#000000" stroke="none">
<path d="M1160 2398 c-23 -55 -35 -143 -21 -153 6 -3 11 -19 11 -34 0 -22 -9
-34 -42 -56 -68 -45 -126 -96 -164 -145 l-35 -45 27 -7 c16 -4 59 -1 102 8 41
8 103 16 139 18 75 2 84 11 81 75 -3 40 -6 44 -38 55 -33 10 -35 14 -45 76 -6
36 -14 70 -18 76 -7 12 15 143 27 163 4 6 4 11 1 11 -3 0 -14 -19 -25 -42z"/>
<path d="M1521 2195 c-19 -38 -22 -57 -18 -99 9 -71 42 -100 135 -116 42 -7
78 -19 91 -31 25 -24 56 -83 65 -125 4 -17 30 -60 58 -95 130 -161 198 -254
198 -270 0 -9 -33 -47 -72 -84 -59 -54 -103 -82 -226 -143 -133 -67 -152 -80
-147 -97 17 -61 17 -75 2 -75 -10 0 -20 -14 -26 -37 -5 -21 -17 -67 -26 -103
-9 -36 -18 -66 -20 -68 -1 -2 -13 34 -25 79 -12 45 -24 89 -28 97 -3 9 -1 13
5 9 6 -4 0 21 -14 54 -62 153 -68 285 -22 469 37 149 47 277 29 380 l-13 75
-13 -110 c-7 -60 -27 -179 -43 -264 -46 -231 -39 -357 28 -506 17 -37 31 -69
31 -71 0 -2 -17 -4 -37 -5 -21 0 -32 -3 -25 -6 9 -3 12 -41 12 -138 0 -97 -3
-135 -12 -138 -7 -3 2 -6 21 -6 27 -1 31 1 22 13 -8 9 -11 51 -9 122 l3 109
34 -123 c19 -67 38 -122 42 -122 8 0 10 4 50 155 l24 90 3 -109 c2 -71 -1
-113 -9 -122 -9 -12 -4 -14 32 -14 33 0 40 3 31 12 -8 8 -12 48 -11 123 1 60
3 102 6 93 4 -16 8 -16 54 3 169 66 315 225 372 404 32 100 32 290 0 390 -25
80 -78 173 -140 244 -78 91 -240 183 -347 197 -41 6 -42 6 -65 -41z"/>
<path d="M863 1953 c9 -2 23 -2 30 0 6 3 -1 5 -18 5 -16 0 -22 -2 -12 -5z"/>
<path d="M812 1724 c-27 -133 -6 -284 59 -420 38 -80 176 -227 245 -262 52
-26 56 -38 38 -98 -27 -91 -13 -155 38 -173 31 -11 53 -6 81 17 13 12 17 31
17 87 0 82 -15 105 -67 105 l-30 0 -6 88 c-7 125 -44 306 -79 385 -16 38 -38
112 -48 165 -24 125 -40 138 -186 157 l-51 6 -11 -57z m433 -849 c0 -89 0 -90
-25 -90 -24 0 -25 2 -28 79 -3 94 1 108 30 104 22 -3 23 -7 23 -93z"/>
<path d="M1680 1626 c-97 -171 -110 -204 -110 -281 l0 -74 53 22 c109 45 245
162 235 202 -2 7 -37 49 -79 92 l-76 79 -23 -40z"/>
<path d="M408 1053 c9 -3 12 -41 12 -138 0 -97 -3 -135 -12 -138 -7 -3 10 -6
37 -6 39 0 46 2 33 10 -16 9 -18 27 -18 139 l0 130 24 0 c37 0 47 -22 44 -92
-3 -57 -5 -63 -25 -66 -13 -2 -23 -8 -23 -13 0 -16 37 -10 64 12 22 17 26 28
26 73 0 30 -6 61 -16 74 -13 19 -24 22 -87 21 -40 0 -66 -3 -59 -6z"/>
<path d="M2138 983 c-52 -6 -68 -32 -68 -114 0 -76 18 -102 72 -102 36 0 58
24 57 62 0 23 -2 22 -12 -9 -10 -30 -17 -35 -42 -35 l-30 0 -3 70 c-2 38 0 80
3 92 7 30 47 30 69 1 13 -18 16 -19 12 -5 -3 10 -6 25 -6 33 0 8 -3 13 -7 12
-5 -1 -25 -3 -45 -5z"/>
<path d="M635 888 c-17 -50 -36 -97 -43 -105 -11 -11 -8 -13 19 -13 25 0 29 3
20 14 -20 24 -2 47 33 44 33 -3 49 -34 24 -49 -8 -6 5 -9 37 -9 35 0 46 3 35
10 -8 5 -29 51 -45 101 -17 51 -36 94 -41 96 -6 2 -23 -38 -39 -89z m54 -40
c1 -5 -10 -8 -24 -8 -28 0 -30 4 -13 51 l11 33 13 -34 c7 -19 13 -38 13 -42z"/>
<path d="M776 972 c6 -4 13 -42 16 -85 6 -90 23 -117 74 -117 48 0 64 29 64
115 0 42 5 76 12 83 9 9 4 12 -23 12 -28 -1 -31 -2 -16 -11 13 -8 17 -24 17
-77 0 -74 -17 -112 -50 -112 -29 0 -40 31 -40 109 0 56 3 72 18 80 13 8 6 10
-33 11 -27 0 -45 -4 -39 -8z"/>
<path d="M978 968 c16 -16 16 -170 0 -186 -9 -9 2 -12 49 -12 34 0 68 -3 77
-6 13 -5 16 1 16 32 -1 34 -2 37 -12 19 -15 -26 -28 -35 -55 -35 -22 0 -23 3
-23 90 0 74 3 91 18 99 13 8 6 10 -32 11 -39 0 -47 -3 -38 -12z"/>
<path d="M1757 973 c-3 -5 -17 -46 -31 -93 -15 -46 -32 -90 -38 -97 -8 -10 -3
-13 23 -13 27 1 30 3 17 10 -28 17 -11 50 27 50 39 0 56 -27 29 -47 -15 -11
-11 -13 31 -13 45 0 47 1 33 18 -9 9 -28 56 -43 105 -26 81 -37 99 -48 80z
m23 -120 c0 -7 -12 -13 -26 -13 -20 0 -25 4 -20 16 3 9 9 28 13 42 l6 27 13
-30 c7 -16 13 -36 14 -42z"/>
<path d="M1878 973 c8 -3 12 -33 12 -98 0 -65 -4 -95 -12 -98 -7 -3 9 -6 35
-6 44 -1 47 0 33 15 -12 11 -16 36 -16 94 0 82 7 96 40 85 29 -9 29 -85 0 -92
l-21 -6 21 -14 c11 -8 20 -24 20 -37 0 -27 18 -46 42 -46 19 0 20 -1 -15 67
-13 27 -13 34 -1 44 8 6 14 24 14 40 0 41 -32 59 -105 58 -33 0 -54 -3 -47 -6z"/>
<path d="M2233 969 c14 -8 17 -25 17 -94 0 -69 -3 -86 -17 -94 -14 -8 -7 -10
32 -11 38 0 46 3 37 12 -7 7 -12 43 -12 93 0 50 5 86 12 93 9 9 1 12 -37 12
-39 -1 -46 -3 -32 -11z"/>
<path d="M2354 955 c-22 -33 -16 -147 9 -172 25 -26 85 -22 108 6 24 30 26
136 3 169 -23 33 -97 32 -120 -3z m91 -80 c0 -87 -1 -90 -24 -93 -33 -5 -41
12 -41 94 0 75 11 97 45 92 18 -3 20 -10 20 -93z"/>
<path d="M851 714 c0 -11 3 -14 6 -6 3 7 2 16 -1 19 -3 4 -6 -2 -5 -13z"/>
<path d="M1032 700 c0 -19 2 -27 5 -17 2 9 2 25 0 35 -3 9 -5 1 -5 -18z"/>
<path d="M1342 700 c0 -19 2 -27 5 -17 2 9 2 25 0 35 -3 9 -5 1 -5 -18z"/>
<path d="M1452 700 c0 -19 2 -27 5 -17 2 9 2 25 0 35 -3 9 -5 1 -5 -18z"/>
<path d="M1672 700 c0 -19 2 -27 5 -17 2 9 2 25 0 35 -3 9 -5 1 -5 -18z"/>
<path d="M1882 710 c0 -14 2 -19 5 -12 2 6 2 18 0 25 -3 6 -5 1 -5 -13z"/>
<path d="M1475 709 c-4 -6 -5 -12 -2 -15 2 -3 7 2 10 11 7 17 1 20 -8 4z"/>
<path d="M930 706 c0 -2 7 -7 16 -10 8 -3 12 -2 9 4 -6 10 -25 14 -25 6z"/>
<path d="M1110 691 c0 -6 4 -13 10 -16 6 -3 7 1 4 9 -7 18 -14 21 -14 7z"/>
<path d="M1590 685 c0 -8 4 -15 10 -15 5 0 7 7 4 15 -4 8 -8 15 -10 15 -2 0
-4 -7 -4 -15z"/>
<path d="M2140 685 c0 -8 4 -15 10 -15 5 0 7 7 4 15 -4 8 -8 15 -10 15 -2 0
-4 -7 -4 -15z"/>
<path d="M1905 680 c-16 -7 -17 -9 -3 -9 9 -1 20 4 23 9 7 11 7 11 -20 0z"/>
</g>
</svg>
